<svg xmlns="http://www.w3.org/2000/svg" width="17.091" height="17.091" viewBox="0 0 17.091 17.091"><path d="M11.394,8.546A2.85,2.85,0,0,0,8.546,5.7,2.85,2.85,0,0,0,5.7,8.546a2.85,2.85,0,0,0,2.849,2.849,2.85,2.85,0,0,0,2.849-2.849Zm1.535,0a4.368,4.368,0,0,1-4.384,4.384A4.368,4.368,0,0,1,4.162,8.546,4.368,4.368,0,0,1,8.546,4.162a4.368,4.368,0,0,1,4.384,4.384Zm1.2-4.562a1.024,1.024,0,1,1-1.747-.723,1.024,1.024,0,0,1,1.747.723ZM8.546,1.535,7.694,1.53q-.773-.006-1.174,0t-1.074.033A8.775,8.775,0,0,0,4.3,1.674a4.422,4.422,0,0,0-.8.207A2.91,2.91,0,0,0,1.88,3.505a4.465,4.465,0,0,0-.206.8,8.775,8.775,0,0,0-.111,1.146q-.028.673-.033,1.074t0,1.174q.006.773.006.851T1.53,9.4q-.006.773,0,1.174t.033,1.074a8.775,8.775,0,0,0,.111,1.146,4.439,4.439,0,0,0,.206.795,2.91,2.91,0,0,0,1.625,1.625,4.465,4.465,0,0,0,.8.206,8.775,8.775,0,0,0,1.146.111q.673.028,1.074.033t1.174,0l.851-.006.851.006q.773.006,1.174,0t1.074-.033a8.774,8.774,0,0,0,1.146-.111,4.466,4.466,0,0,0,.8-.206,2.91,2.91,0,0,0,1.625-1.625,4.465,4.465,0,0,0,.206-.8,8.775,8.775,0,0,0,.111-1.146q.028-.673.033-1.074t0-1.174q-.006-.773-.006-.851t.006-.851q.006-.773,0-1.174t-.033-1.074A8.774,8.774,0,0,0,15.418,4.3a4.38,4.38,0,0,0-.207-.795A2.91,2.91,0,0,0,13.586,1.88a4.465,4.465,0,0,0-.8-.206,8.775,8.775,0,0,0-1.146-.111q-.673-.028-1.074-.033T9.4,1.53l-.851.006Zm8.546,7.01q0,2.548-.056,3.527a5.219,5.219,0,0,1-1.38,3.583,5.219,5.219,0,0,1-3.583,1.38q-.979.056-3.527.056t-3.527-.056a5.219,5.219,0,0,1-3.583-1.38,5.219,5.219,0,0,1-1.38-3.583Q0,11.094,0,8.546T.056,5.018a5.219,5.219,0,0,1,1.38-3.583A5.219,5.219,0,0,1,5.018.056Q6,0,8.546,0t3.527.056a5.219,5.219,0,0,1,3.583,1.38,5.219,5.219,0,0,1,1.38,3.583Q17.091,6,17.091,8.546Z"/></svg>