<svg xmlns="http://www.w3.org/2000/svg" width="204" height="100.111" viewBox="0 0 204 100.111"><g transform="translate(-225.448 -385.637)"><path d="M379.392,485.748a50.055,50.055,0,0,0,0-100.111H275.5a50.055,50.055,0,0,0,0,100.111Z" transform="translate(0 0)" fill="#fff"/><g transform="translate(259.497 394.65)"><g transform="translate(0.125 17.343)"><path d="M339.91,466.914V499.49h-9.075V466.914Z" transform="translate(-330.835 -466.914)" fill="#0a0a0a"/><path d="M373.632,466.914V499.49h-9.074V466.914Zm10.89,18.847a11.961,11.961,0,0,1,1.024,5.4,8.159,8.159,0,0,1-1.047,4.025,7.8,7.8,0,0,1-3.421,3.095,13.52,13.52,0,0,1-6.143,1.21h-6.189v-6.283h6.189a1.307,1.307,0,0,0,1.187-.535,2.757,2.757,0,0,0,.349-1.512v-3.025a2.4,2.4,0,0,0-.419-1.512,1.67,1.67,0,0,0-1.4-.535h-5.91v-5.724h5.91a.968.968,0,0,0,.931-.535,3.321,3.321,0,0,0,.279-1.512v-3.072a2.649,2.649,0,0,0-.372-1.489,1.3,1.3,0,0,0-1.164-.558h-5.585v-6.282h5.585a11.473,11.473,0,0,1,6.073,1.466,9.1,9.1,0,0,1,3.467,3.537,8.665,8.665,0,0,1,1.071,3.979,10,10,0,0,1-.884,4.444,5.152,5.152,0,0,1-3.4,2.536A6.087,6.087,0,0,1,384.523,485.761Z" transform="translate(-353.623 -466.914)" fill="#0a0a0a"/><path d="M443.378,466.914V499.49H434.3V466.914Zm6.888,0V473.2H437.515v-6.282Zm0,12.8v6.283H437.515v-6.283Zm0,13.5v6.283H437.515v-6.283Z" transform="translate(-400.752 -466.914)" fill="#0a0a0a"/><path d="M505.114,468.426a9.5,9.5,0,0,1,3.537,3.793,10.219,10.219,0,0,1,1.14,4.607v1.256a10.707,10.707,0,0,1-1.07,4.631,9.078,9.078,0,0,1-3.444,3.77,11.166,11.166,0,0,1-6.1,1.512h-.838V499.49h-9.075V466.914h9.913A10.916,10.916,0,0,1,505.114,468.426Zm-4.4,6.817a2.649,2.649,0,0,0-.373-1.489,1.3,1.3,0,0,0-1.163-.558h-.838v8.516h.838a1.308,1.308,0,0,0,1.187-.535,2.765,2.765,0,0,0,.349-1.512Zm5.072,9.028,4.467,15.218h-8.144l-2.28-12.658Z" transform="translate(-437.893 -466.914)" fill="#0a0a0a"/><path d="M568.807,466.914V499.49h-9.074V466.914Z" transform="translate(-485.508 -466.914)" fill="#0a0a0a"/><path d="M607.89,499.49,604.4,474.08h-.558L600.77,499.49h-8.749l5.212-32.575h14.38l5.026,32.575Zm3.3-13.868V491.9H597.047v-6.282Z" transform="translate(-507.326 -466.914)" fill="#0a0a0a"/><path d="M697.187,466.914V499.49H683.413L681.318,479.8h-.93V499.49h-8.144V466.914h12.844l3.025,21.639h.745V466.914Z" transform="translate(-561.535 -466.914)" fill="#0a0a0a"/><g transform="translate(0 39.106)"><path d="M343.009,589.995a7.306,7.306,0,0,1,2.717,2.914,7.849,7.849,0,0,1,.876,3.54v.965a8.22,8.22,0,0,1-.822,3.558,6.971,6.971,0,0,1-2.646,2.9,8.578,8.578,0,0,1-4.684,1.162h-.644v8.831h-6.972V588.833h7.616A8.391,8.391,0,0,1,343.009,589.995Zm-3.379,5.238a2.034,2.034,0,0,0-.286-1.144,1,1,0,0,0-.894-.429h-.644V600.2h.644a1.006,1.006,0,0,0,.912-.411,2.125,2.125,0,0,0,.268-1.162Zm3.9,6.936,3.433,11.692H340.7l-1.752-9.725Z" transform="translate(-330.835 -588.404)" fill="#0a0a0a"/><path d="M391.944,588.833v25.028h-6.972V588.833Zm5.292,0v4.827h-9.8v-4.827Zm0,9.832v4.827h-9.8v-4.827Zm0,10.369v4.827h-9.8v-4.827Z" transform="translate(-367.417 -588.404)" fill="#0a0a0a"/><path d="M438.293,613.861l-2.682-19.522h-.429l-2.36,19.522H426.1l4-25.028h11.048l3.862,25.028Zm2.538-10.655v4.827h-10.87v-4.827Z" transform="translate(-395.208 -588.404)" fill="#0a0a0a"/><path d="M494.708,588.833v25.028h-6.972V588.833Zm6.042,20.2v4.827H490.2v-4.827Z" transform="translate(-436.858 -588.404)" fill="#0a0a0a"/><path d="M553.23,588.833H560.2v25.028H553.23Zm2.467,0h9.8v4.827h-9.8Zm0,8.974h9.8v4.827h-9.8Z" transform="translate(-481.114 -588.404)" fill="#0a0a0a"/><path d="M598.324,612.127a6.874,6.874,0,0,1-2.61-2.9,8.37,8.37,0,0,1-.8-3.557V595.125a8.37,8.37,0,0,1,.8-3.557,6.879,6.879,0,0,1,2.61-2.9,8.416,8.416,0,0,1,4.63-1.162,8.578,8.578,0,0,1,4.684,1.144,6.473,6.473,0,0,1,2.538,2.86,8.913,8.913,0,0,1,.751,3.611v10.548a8.908,8.908,0,0,1-.751,3.611,6.467,6.467,0,0,1-2.538,2.861,8.569,8.569,0,0,1-4.684,1.144A8.41,8.41,0,0,1,598.324,612.127Zm5.4-4.934a2.392,2.392,0,0,0,.233-1.162V594.768a2.391,2.391,0,0,0-.233-1.162.993.993,0,0,0-1.609,0,2.386,2.386,0,0,0-.232,1.162v11.263a2.386,2.386,0,0,0,.232,1.162.993.993,0,0,0,1.609,0Z" transform="translate(-509.278 -587.51)" fill="#0a0a0a"/><path d="M651.029,612.127a6.873,6.873,0,0,1-2.61-2.9,8.368,8.368,0,0,1-.8-3.557V595.125a8.369,8.369,0,0,1,.8-3.557,6.879,6.879,0,0,1,2.61-2.9,8.416,8.416,0,0,1,4.63-1.162,8.577,8.577,0,0,1,4.684,1.144,6.47,6.47,0,0,1,2.538,2.86,8.914,8.914,0,0,1,.751,3.611v10.548a8.909,8.909,0,0,1-.751,3.611,6.465,6.465,0,0,1-2.538,2.861,8.568,8.568,0,0,1-4.684,1.144A8.41,8.41,0,0,1,651.029,612.127Zm5.4-4.934a2.391,2.391,0,0,0,.232-1.162V594.768a2.391,2.391,0,0,0-.232-1.162.993.993,0,0,0-1.609,0,2.386,2.386,0,0,0-.232,1.162v11.263a2.386,2.386,0,0,0,.232,1.162.993.993,0,0,0,1.609,0Z" transform="translate(-544.893 -587.51)" fill="#0a0a0a"/><path d="M700.87,588.833h6.972v25.028H700.87Zm2.753,20.2h4.756a1.135,1.135,0,0,0,.715-.2,1.068,1.068,0,0,0,.358-.536,2.828,2.828,0,0,0,.107-.84V595.233a2.487,2.487,0,0,0-.126-.822,1.127,1.127,0,0,0-.393-.554,1.091,1.091,0,0,0-.661-.2h-4.756v-4.827h4.756a8.586,8.586,0,0,1,4.684,1.162,6.979,6.979,0,0,1,2.646,2.9,8.225,8.225,0,0,1,.822,3.558v9.8a8.221,8.221,0,0,1-.822,3.558,6.972,6.972,0,0,1-2.646,2.9,8.578,8.578,0,0,1-4.684,1.162h-4.756Z" transform="translate(-580.879 -588.404)" fill="#0a0a0a"/></g></g><path d="M333.45,416.96a10.614,10.614,0,0,0,1.39.6,20.361,20.361,0,0,1,2.076.91,4.655,4.655,0,0,1,1.447,1.178,2.764,2.764,0,0,1,.617,1.82,2.388,2.388,0,0,1-.5,1.544,2.918,2.918,0,0,1-1.353.917,5.911,5.911,0,0,1-1.95.3,6.809,6.809,0,0,1-1.956-.276,6.3,6.3,0,0,1-1.629-.731,4.721,4.721,0,0,1-1.145-1.007l1.057-2.163a6.169,6.169,0,0,0,1.774,1.521,3.9,3.9,0,0,0,1.9.537,1.885,1.885,0,0,0,.9-.172.521.521,0,0,0,.308-.47.714.714,0,0,0-.271-.53,2.923,2.923,0,0,0-.679-.447q-.409-.2-1.151-.515-1.158-.492-1.9-.895a4.4,4.4,0,0,1-1.277-1.037,2.251,2.251,0,0,1-.535-1.5,2.876,2.876,0,0,1,.447-1.551,3.089,3.089,0,0,1,1.34-1.141,5.04,5.04,0,0,1,2.177-.425,6.179,6.179,0,0,1,1.787.254,6.276,6.276,0,0,1,1.485.649,4.418,4.418,0,0,1,1.019.828l-1.27,1.969a6.723,6.723,0,0,0-1.453-1.014,3.366,3.366,0,0,0-1.541-.388,2.716,2.716,0,0,0-1.139.194q-.409.194-.409.492T333.45,416.96Z" transform="translate(-330.449 -413.432)" fill="#0a0a0a"/><path d="M361.538,413.984v10.442h-2.453V413.984Zm5.448,0V416.3h-7.034v-2.312Zm-.7,4.147v2.014h-6.329v-2.014Zm.7,3.983v2.312h-7.034v-2.312Z" transform="translate(-349.799 -413.805)" fill="#0a0a0a"/><path d="M389.011,413.984v10.442h-2.453V413.984Zm4.542,8.428v2.014h-6.128v-2.014Z" transform="translate(-368.363 -413.805)" fill="#0a0a0a"/><path d="M412.136,413.984v10.442h-2.453V413.984Zm4.543,8.428v2.014h-6.128v-2.014Z" transform="translate(-383.99 -413.805)" fill="#0a0a0a"/><path d="M433.906,423.57a4.936,4.936,0,0,1-1.969-1.969,5.682,5.682,0,0,1-.68-2.767v-.149a5.158,5.158,0,0,1,.673-2.618,4.8,4.8,0,0,1,1.963-1.857,7.176,7.176,0,0,1,6.14.007,4.807,4.807,0,0,1,1.957,1.865,5.138,5.138,0,0,1,.667,2.588v.134a5.876,5.876,0,0,1-.66,2.8,4.824,4.824,0,0,1-1.944,1.969,6.21,6.21,0,0,1-3.1.724A6.136,6.136,0,0,1,433.906,423.57Zm5.448-2.513a2.887,2.887,0,0,0,.849-2.223v-.149a2.482,2.482,0,0,0-.849-1.984,4.309,4.309,0,0,0-4.813.008,2.638,2.638,0,0,0-.843,2.1v.134a2.764,2.764,0,0,0,.837,2.133,3.437,3.437,0,0,0,2.422.776A3.385,3.385,0,0,0,439.354,421.057Z" transform="translate(-398.568 -413.494)" fill="#0a0a0a"/><path d="M480.768,413.984h2.453v10.442h-2.453Zm2.189,7.846h2.618a1.942,1.942,0,0,0,1.006-.283,2.125,2.125,0,0,0,.787-.873,3.475,3.475,0,0,0,.025-2.8,2.377,2.377,0,0,0-.761-.947,1.773,1.773,0,0,0-1.057-.343h-2.618v-2.6h2.618a3.956,3.956,0,0,1,2.265.709A5.04,5.04,0,0,1,489.5,416.6a5.945,5.945,0,0,1-.019,5.31,4.856,4.856,0,0,1-1.68,1.85,4.079,4.079,0,0,1-2.227.664h-2.618Z" transform="translate(-432.024 -413.805)" fill="#0a0a0a"/><path d="M514.573,413.984v10.442H512.12V413.984Zm5.448,0V416.3h-7.034v-2.312Zm-.7,4.147v2.014h-6.329v-2.014Zm.7,3.983v2.312h-7.034v-2.312Z" transform="translate(-453.209 -413.805)" fill="#0a0a0a"/><path d="M557.9,421.519a4.47,4.47,0,0,0,1.132-.515,7.283,7.283,0,0,0,1.069-.843l1.233,2.118a5.7,5.7,0,0,1-1.856,1.447,5.587,5.587,0,0,1-2.548.567,6.324,6.324,0,0,1-3.089-.709,4.77,4.77,0,0,1-1.95-1.924,5.544,5.544,0,0,1-.661-2.692,5.973,5.973,0,0,1,.642-2.789,4.749,4.749,0,0,1,1.85-1.947,5.519,5.519,0,0,1,2.844-.709,6.723,6.723,0,0,1,2.749.582,5.1,5.1,0,0,1,2.02,1.492l-1.271,1.969a3.93,3.93,0,0,0-.875-.731,4.9,4.9,0,0,0-1.139-.522,4.135,4.135,0,0,0-1.246-.194,3.264,3.264,0,0,0-2.328.761,2.735,2.735,0,0,0-.805,2.088,2.852,2.852,0,0,0,.371,1.507,2.321,2.321,0,0,0,1.025.917,3.528,3.528,0,0,0,1.51.306A4.635,4.635,0,0,0,557.9,421.519Z" transform="translate(-479.639 -413.494)" fill="#0a0a0a"/><path d="M591.913,424.426l-3.46-8.144H588.3l-2.844,8.144h-2.68l4.052-10.442h3.07l4.5,10.442Zm.226-4.147v2.073h-6.266v-2.073Z" transform="translate(-500.955 -413.805)" fill="#0a0a0a"/><path d="M623.8,413.984v10.442h-2.453V413.984Zm4.542,8.428v2.014h-6.128v-2.014Z" transform="translate(-527.019 -413.805)" fill="#0a0a0a"/><path d="M646.927,413.984v10.442h-2.453V413.984Z" transform="translate(-542.645 -413.805)" fill="#0a0a0a"/><path d="M655.145,413.984H657.6v10.442h-2.453Zm2.19,7.846h2.617a1.944,1.944,0,0,0,1.007-.283,2.122,2.122,0,0,0,.786-.873,3.471,3.471,0,0,0,.025-2.8,2.378,2.378,0,0,0-.761-.947,1.775,1.775,0,0,0-1.057-.343h-2.617v-2.6h2.617a3.957,3.957,0,0,1,2.265.709,5.041,5.041,0,0,1,1.661,1.909,5.944,5.944,0,0,1-.019,5.31,4.852,4.852,0,0,1-1.68,1.85,4.08,4.08,0,0,1-2.227.664h-2.617Z" transform="translate(-549.856 -413.805)" fill="#0a0a0a"/><path d="M691.286,424.426l-3.46-8.144h-.151l-2.844,8.144h-2.68l4.052-10.442h3.07l4.5,10.442Zm.226-4.147v2.073h-6.266v-2.073Z" transform="translate(-568.104 -413.805)" fill="#0a0a0a"/><path d="M720.721,413.984h2.453v10.442h-2.453Zm2.189,7.846h2.618a1.942,1.942,0,0,0,1.006-.283,2.125,2.125,0,0,0,.787-.873,3.474,3.474,0,0,0,.025-2.8,2.378,2.378,0,0,0-.761-.947,1.773,1.773,0,0,0-1.057-.343H722.91v-2.6h2.618a3.957,3.957,0,0,1,2.265.709,5.041,5.041,0,0,1,1.661,1.909,5.945,5.945,0,0,1-.019,5.31,4.855,4.855,0,0,1-1.68,1.85,4.079,4.079,0,0,1-2.227.664H722.91Z" transform="translate(-594.167 -413.805)" fill="#0a0a0a"/></g></g></svg>