<svg xmlns="http://www.w3.org/2000/svg" width="166" height="79.401" viewBox="0 0 166 79.401"><g transform="translate(-143.411 -350.305)"><g transform="translate(143.411 350.305)"><path d="M154.516,350.3v39.863H143.411V350.3Z" transform="translate(-143.411 -350.305)"/><path d="M218.457,350.3v39.863h-11.1V350.3Zm13.326,23.064a14.636,14.636,0,0,1,1.253,6.606,9.986,9.986,0,0,1-1.281,4.926,9.548,9.548,0,0,1-4.186,3.787,16.546,16.546,0,0,1-7.517,1.48h-7.574V382.48h7.574a1.6,1.6,0,0,0,1.452-.655,3.374,3.374,0,0,0,.427-1.851v-3.7a2.942,2.942,0,0,0-.512-1.851,2.043,2.043,0,0,0-1.709-.655h-7.232v-7h7.232a1.185,1.185,0,0,0,1.139-.655,4.067,4.067,0,0,0,.342-1.851V360.5a3.242,3.242,0,0,0-.455-1.822,1.59,1.59,0,0,0-1.424-.683h-6.834V350.3h6.834a14.038,14.038,0,0,1,7.431,1.794,11.142,11.142,0,0,1,4.243,4.328,10.608,10.608,0,0,1,1.31,4.869,12.239,12.239,0,0,1-1.082,5.439,6.3,6.3,0,0,1-4.157,3.1A7.448,7.448,0,0,1,231.784,373.369Z" transform="translate(-193.971 -350.305)"/><path d="M350.7,350.3v39.863H339.6V350.3Zm8.429,0v7.688h-15.6V350.3Zm0,15.661v7.688h-15.6v-7.688Zm0,16.515v7.688h-15.6V382.48Z" transform="translate(-298.537 -350.305)"/><path d="M463.2,352.156a11.624,11.624,0,0,1,4.328,4.641,12.5,12.5,0,0,1,1.4,5.638v1.537a13.1,13.1,0,0,1-1.309,5.667,11.1,11.1,0,0,1-4.215,4.613,13.662,13.662,0,0,1-7.46,1.851h-1.025v14.066H443.81V350.3h12.13A13.359,13.359,0,0,1,463.2,352.156ZM457.82,360.5a3.242,3.242,0,0,0-.456-1.822,1.59,1.59,0,0,0-1.424-.683h-1.025v10.421h1.025a1.6,1.6,0,0,0,1.452-.655,3.382,3.382,0,0,0,.427-1.851Zm6.207,11.048,5.467,18.622h-9.966l-2.79-15.49Z" transform="translate(-380.941 -350.305)"/><path d="M588.519,350.3v39.863h-11.1V350.3Z" transform="translate(-486.585 -350.305)"/><path d="M658.054,390.168l-4.271-31.094H653.1l-3.759,31.094H638.635l6.378-39.863h17.6l6.151,39.863ZM662.1,373.2v7.688H644.785V373.2Z" transform="translate(-534.992 -350.305)"/><path d="M821.266,350.3v39.863H804.409l-2.563-24.089h-1.139v24.089h-9.966V350.3H806.46l3.7,26.48h.911V350.3Z" transform="translate(-655.266 -350.305)"/></g><g transform="translate(143.411 398.159)"><path d="M158.309,582.892a8.938,8.938,0,0,1,3.326,3.566,9.608,9.608,0,0,1,1.072,4.332v1.181a10.057,10.057,0,0,1-1.006,4.354,8.531,8.531,0,0,1-3.238,3.544,10.5,10.5,0,0,1-5.732,1.422h-.788V612.1h-8.532V581.47h9.32A10.266,10.266,0,0,1,158.309,582.892Zm-4.135,6.41a2.49,2.49,0,0,0-.35-1.4,1.222,1.222,0,0,0-1.094-.525h-.788v8.007h.788a1.23,1.23,0,0,0,1.116-.5,2.6,2.6,0,0,0,.328-1.422Zm4.769,8.488,4.2,14.308h-7.657l-2.144-11.9Z" transform="translate(-143.411 -580.945)"/><path d="M254.59,581.47V612.1h-8.532V581.47Zm6.476,0v5.907H249.077V581.47Zm0,12.032v5.907H249.077V593.5Zm0,12.688V612.1H249.077v-5.907Z" transform="translate(-224.576 -580.945)"/><path d="M338.96,612.1l-3.281-23.89h-.525l-2.888,23.89H324.04l4.9-30.628h13.52l4.726,30.628Zm3.106-13.038v5.906h-13.3v-5.906Z" transform="translate(-286.237 -580.945)"/><path d="M449.437,581.47V612.1H440.9V581.47Zm7.394,24.721V612.1H443.924v-5.907Z" transform="translate(-378.644 -580.945)"/><path d="M565.086,581.47h8.532V612.1h-8.532Zm3.019,0h11.989v5.907H568.1Zm0,10.982h11.989v5.907H568.1Z" transform="translate(-476.836 -580.945)"/><path d="M648.289,609.086a8.414,8.414,0,0,1-3.193-3.544,10.24,10.24,0,0,1-.985-4.353V588.281a10.243,10.243,0,0,1,.985-4.353,8.422,8.422,0,0,1,3.193-3.544,10.3,10.3,0,0,1,5.666-1.422,10.493,10.493,0,0,1,5.732,1.4,7.916,7.916,0,0,1,3.107,3.5,10.905,10.905,0,0,1,.919,4.419v12.908a10.9,10.9,0,0,1-.919,4.419,7.913,7.913,0,0,1-3.107,3.5,10.486,10.486,0,0,1-5.732,1.4A10.3,10.3,0,0,1,648.289,609.086Zm6.607-6.038a2.923,2.923,0,0,0,.284-1.422V587.844a2.926,2.926,0,0,0-.284-1.422,1.215,1.215,0,0,0-1.969,0,2.919,2.919,0,0,0-.284,1.422v13.782a2.917,2.917,0,0,0,.284,1.422,1.215,1.215,0,0,0,1.969,0Z" transform="translate(-539.322 -578.962)"/><path d="M748.221,609.086a8.414,8.414,0,0,1-3.194-3.544,10.242,10.242,0,0,1-.984-4.353V588.281a10.244,10.244,0,0,1,.984-4.353,8.421,8.421,0,0,1,3.194-3.544,10.3,10.3,0,0,1,5.666-1.422,10.494,10.494,0,0,1,5.732,1.4,7.917,7.917,0,0,1,3.106,3.5,10.905,10.905,0,0,1,.919,4.419v12.908a10.9,10.9,0,0,1-.919,4.419,7.914,7.914,0,0,1-3.106,3.5,10.487,10.487,0,0,1-5.732,1.4A10.3,10.3,0,0,1,748.221,609.086Zm6.607-6.038a2.924,2.924,0,0,0,.284-1.422V587.844a2.927,2.927,0,0,0-.284-1.422,1.215,1.215,0,0,0-1.969,0,2.918,2.918,0,0,0-.284,1.422v13.782a2.916,2.916,0,0,0,.284,1.422,1.215,1.215,0,0,0,1.969,0Z" transform="translate(-618.34 -578.962)"/><path d="M845.019,581.47h8.531V612.1h-8.531Zm3.369,24.721h5.82a1.389,1.389,0,0,0,.875-.24,1.309,1.309,0,0,0,.438-.656,3.467,3.467,0,0,0,.131-1.028V589.3a3.049,3.049,0,0,0-.153-1.006,1.385,1.385,0,0,0-.481-.678,1.335,1.335,0,0,0-.809-.241h-5.82V581.47h5.82a10.505,10.505,0,0,1,5.732,1.422,8.541,8.541,0,0,1,3.237,3.544,10.057,10.057,0,0,1,1.007,4.354v11.988a10.054,10.054,0,0,1-1.007,4.354,8.532,8.532,0,0,1-3.237,3.544,10.5,10.5,0,0,1-5.732,1.422h-5.82Z" transform="translate(-698.183 -580.945)"/></g></g></svg>