<svg xmlns="http://www.w3.org/2000/svg" width="19.091" height="15.508" viewBox="0 0 19.091 15.508"><path d="M19.091,1.837a7.931,7.931,0,0,1-1.957,2.023q.012.224.012.507a11.25,11.25,0,0,1-1.857,6.159,11.9,11.9,0,0,1-2.242,2.551,9.995,9.995,0,0,1-3.128,1.772A11.424,11.424,0,0,1,6,15.508a10.9,10.9,0,0,1-6-1.76,8.469,8.469,0,0,0,.934.054A7.679,7.679,0,0,0,5.8,12.125a3.8,3.8,0,0,1-2.274-.782A3.849,3.849,0,0,1,2.142,9.4a3.915,3.915,0,0,0,1.769-.066,3.817,3.817,0,0,1-2.248-1.35A3.79,3.79,0,0,1,.769,5.5V5.452a3.865,3.865,0,0,0,1.774.49,3.891,3.891,0,0,1-1.273-1.4A3.822,3.822,0,0,1,.8,2.684,3.848,3.848,0,0,1,1.331.716,11.152,11.152,0,0,0,4.9,3.607a10.884,10.884,0,0,0,4.5,1.2,3.83,3.83,0,0,1-.1-.891,3.773,3.773,0,0,1,1.148-2.769,3.918,3.918,0,0,1,5.628.087A7.8,7.8,0,0,0,18.561.285a3.787,3.787,0,0,1-1.72,2.167,7.827,7.827,0,0,0,2.25-.615Z"/></svg>