<svg xmlns="http://www.w3.org/2000/svg" width="18.872" height="22.82" viewBox="0 0 18.872 22.82"><path d="M12.564,15.842v2.687q0,.853-.5.853a.817.817,0,0,1-.573-.28V15.268a.817.817,0,0,1,.573-.28q.5,0,.5.853Zm4.3.013v.586H15.722v-.586q0-.866.573-.866T16.868,15.854Zm-12.3-2.776H5.93v-1.2H1.956v1.2H3.293v7.246H4.566V13.078Zm3.668,7.246H9.368V14.034H8.235v4.814q-.382.535-.726.535-.229,0-.268-.268a3.556,3.556,0,0,1-.013-.446V14.034H6.1v4.979a3.148,3.148,0,0,0,.1.93.686.686,0,0,0,.738.471,1.865,1.865,0,0,0,1.3-.777v.688ZM13.7,18.44V15.931a4.523,4.523,0,0,0-.115-1.261.885.885,0,0,0-.9-.713,1.534,1.534,0,0,0-1.184.688V11.881H10.361v8.443h1.133v-.611a1.58,1.58,0,0,0,1.184.7.881.881,0,0,0,.9-.7,4.675,4.675,0,0,0,.115-1.273Zm4.3-.127v-.165H16.843a6.32,6.32,0,0,1-.025.777.488.488,0,0,1-.51.458q-.586,0-.586-.879V17.4H18V16.084a2.528,2.528,0,0,0-.344-1.477,1.74,1.74,0,0,0-2.712,0,2.454,2.454,0,0,0-.357,1.477v2.2a2.389,2.389,0,0,0,.37,1.477,1.634,1.634,0,0,0,1.376.65,1.577,1.577,0,0,0,1.643-1.363A5.631,5.631,0,0,0,18,18.312ZM10.259,6.686V4.011q0-.879-.548-.879t-.548.879V6.686q0,.891.548.891T10.259,6.686Zm9.156,9.563a22.075,22.075,0,0,1-.331,4.457,2.419,2.419,0,0,1-.738,1.261,2.225,2.225,0,0,1-1.3.586,68.067,68.067,0,0,1-7.068.268,68.067,68.067,0,0,1-7.068-.268,2.26,2.26,0,0,1-1.305-.586,2.325,2.325,0,0,1-.732-1.261,21.622,21.622,0,0,1-.331-4.457,22.075,22.075,0,0,1,.331-4.457,2.419,2.419,0,0,1,.738-1.261,2.306,2.306,0,0,1,1.312-.6q2.33-.255,7.055-.255t7.068.255a2.391,2.391,0,0,1,2.037,1.859,21.622,21.622,0,0,1,.331,4.457ZM6.706,0h1.3L6.464,5.081V8.532H5.191V5.081a21.534,21.534,0,0,0-.777-2.7Q3.943,1.07,3.586,0h1.35l.9,3.349Zm4.712,4.241V6.469a2.51,2.51,0,0,1-.357,1.5,1.587,1.587,0,0,1-1.35.65,1.574,1.574,0,0,1-1.337-.65,2.543,2.543,0,0,1-.357-1.5V4.241a2.48,2.48,0,0,1,.357-1.49A1.574,1.574,0,0,1,9.712,2.1a1.587,1.587,0,0,1,1.35.65A2.48,2.48,0,0,1,11.418,4.241Zm4.266-2.063V8.533H14.525v-.7a1.833,1.833,0,0,1-1.312.79.708.708,0,0,1-.751-.471,3.262,3.262,0,0,1-.1-.955V2.177h1.159V6.851a3.348,3.348,0,0,0,.013.446q.038.28.268.28.344,0,.726-.548V2.177h1.159Z" transform="translate(-0.543)"/></svg>